<?xml version="1.0" encoding="UTF-8"?>
<svg width="276px" height="60px" viewBox="0 0 276 60" version="1.1" xmlns="http://www.w3.org/2000/svg" xmlns:xlink="http://www.w3.org/1999/xlink">
    <!-- Generator: Sketch 51.3 (57544) - http://www.bohemiancoding.com/sketch -->
    <title>Logo blue nav</title>
    <desc>Created with Sketch.</desc>
    <defs></defs>
    <g id="Page-1" stroke="none" stroke-width="1" fill="none" fill-rule="evenodd">
        <g id="Web" transform="translate(-539.000000, -414.000000)">
            <g id="Logo-blue-nav" transform="translate(539.000000, 409.000000)">
                <path d="M15.2080679,64.5109589 L0,64.5109589 L0,23 L15.1206653,23 C22.3459542,23 27.2405048,27.1136986 27.2405048,33.2410959 C27.2405048,37.8438356 24.0357396,41.7849315 19.5490682,42.590411 L19.5490682,42.7917808 C25.3759141,43.4821918 29.4255721,47.3657534 29.4255721,53.1191781 C29.4255721,60.1958904 24.094008,64.5109589 15.2080679,64.5109589 Z M3.96225525,26.4808219 L3.96225525,41.439726 L13.1104034,41.439726 C19.4907997,41.439726 23.2199811,38.5630137 23.2199811,33.6726027 C23.2199811,29.1561644 19.8695447,26.4808219 14.2757726,26.4808219 L3.96225525,26.4808219 Z M3.96225525,61.030137 L14.6545176,61.030137 C21.5301958,61.030137 25.3467799,58.0671233 25.3467799,52.9178082 C25.3467799,47.739726 21.3845247,44.8342466 14.1301014,44.8342466 L3.96225525,44.8342466 L3.96225525,61.030137 Z M34.7571361,64.5109589 L34.7571361,23 L38.6028544,23 L38.6028544,64.5109589 L34.7571361,64.5109589 Z M55.2676339,61.7205479 C60.5700637,61.7205479 64.7362586,58.009589 64.7362586,53.2630137 L64.7362586,49.9547945 L55.7629158,50.5589041 C50.9849021,50.8753425 48.3336872,52.9178082 48.3336872,56.2260274 C48.3336872,59.4767123 51.1597075,61.7205479 55.2676339,61.7205479 Z M54.4810097,65 C48.5084926,65 44.4297004,61.4616438 44.4297004,56.2260274 C44.4297004,51.1054795 48.304553,47.9986301 55.2967681,47.5383562 L64.7362586,46.9630137 L64.7362586,44.3739726 C64.7362586,40.0589041 61.9685067,37.469863 57.2487615,37.469863 C52.7912243,37.469863 49.9360698,39.6273973 49.2659825,43.2520548 L45.5368011,43.2520548 C45.9738146,37.9013699 50.4313517,34.1041096 57.3361642,34.1041096 C64.2409766,34.1041096 68.5819769,37.930137 68.5819769,44.0287671 L68.5819769,64.5109589 L64.9110639,64.5109589 L64.9110639,58.8150685 L64.8236612,58.8150685 C63.1338759,62.5260274 58.9968153,65 54.4810097,65 Z M87.0239443,37.4410959 C81.6049776,37.4410959 77.8466619,41.5547945 77.5261854,47.4520548 L96.2303609,47.4520548 C96.1429582,41.5547945 92.5011795,37.4410959 87.0239443,37.4410959 Z M95.9972871,56.0246575 L99.8138712,56.0246575 C98.9107101,61.2027397 93.9870252,65 87.3152866,65 C78.8080915,65 73.5347959,59.1315068 73.5347959,49.6383562 C73.5347959,40.3465753 78.86636,34.1041096 87.0822128,34.1041096 C95.1232602,34.1041096 100.192616,39.9438356 100.192616,48.8616438 L100.192616,50.4726027 L77.4970512,50.4726027 L77.4970512,50.7027397 C77.4970512,57.4630137 81.3719038,61.6630137 87.4026893,61.6630137 C91.9767634,61.6630137 95.1523944,59.3041096 95.9972871,56.0246575 Z M129.647322,34.5931507 L129.647322,64.5109589 L126.005544,64.5109589 L126.005544,58.9589041 L125.918141,58.9589041 C124.315758,62.6410959 120.67398,65 115.866832,65 C109.282496,65 105.174569,60.7712329 105.174569,54.039726 L105.174569,34.5931507 L109.049422,34.5931507 L109.049422,53.3780822 C109.049422,58.6712329 111.904577,61.6054795 116.973933,61.6054795 C122.247228,61.6054795 125.801604,57.9520548 125.801604,52.3424658 L125.801604,34.5931507 L129.647322,34.5931507 Z M165.453291,64.5109589 L160.20913,50.6739726 L141.301014,50.6739726 L136.085987,64.5109589 L133.580444,64.5109589 L149.60427,23 L151.935008,23 L167.9297,64.5109589 L165.453291,64.5109589 Z M150.682236,25.9630137 L142.058504,48.6315068 L159.480774,48.6315068 L150.827908,25.9630137 L150.682236,25.9630137 Z M173.581741,26.739726 L175.825077,26.739726 L175.825077,34.5931507 L181.914131,34.5931507 L181.914131,36.5205479 L175.825077,36.5205479 L175.825077,57.6356164 C175.825077,61.1739726 177.165251,62.5835616 180.224345,62.5835616 C180.370017,62.5835616 182.205473,62.5547945 182.32201,62.5547945 L182.32201,64.5109589 C182.11807,64.539726 180.25348,64.5684932 179.903869,64.5684932 C175.475466,64.5684932 173.581741,62.6410959 173.581741,57.6931507 L173.581741,36.5205479 L169.065935,36.5205479 L169.065935,34.5931507 L173.581741,34.5931507 L173.581741,26.739726 Z M187.740977,64.5109589 L187.740977,23 L190.013447,23 L190.013447,64.5109589 L187.740977,64.5109589 Z M206.416018,63.0150685 C212.388535,63.0150685 217.224817,58.7287671 217.224817,53.4068493 L217.224817,48.9767123 L207.115239,49.6958904 C201.434065,50.1273973 198.345836,52.4863014 198.345836,56.4561644 C198.345836,60.2821918 201.725407,63.0150685 206.416018,63.0150685 Z M206.095541,64.9712329 C200.181293,64.9712329 196.073366,61.490411 196.073366,56.4561644 C196.073366,51.3356164 199.802548,48.4013699 206.794763,47.8547945 L217.224817,47.1356164 L217.224817,44.460274 C217.224817,39.2821918 214.049186,36.1465753 208.688488,36.1465753 C203.415192,36.1465753 200.09389,38.7643836 199.3364,43.2808219 L197.151333,43.2808219 C197.734017,37.7287671 202.104152,34.1328767 208.717622,34.1328767 C215.360226,34.1328767 219.497287,38.0452055 219.497287,44.2876712 L219.497287,64.5109589 L217.31222,64.5109589 L217.31222,58.0958904 L217.253951,58.0958904 C215.709837,62.1520548 211.164897,64.9712329 206.095541,64.9712329 Z M225.294999,42.2452055 C225.294999,37.5273973 229.577731,34.1328767 235.608516,34.1328767 C241.814107,34.1328767 245.951168,37.6712329 246.504718,43.2520548 L244.319651,43.2520548 C243.707832,38.7931507 240.444798,36.060274 235.608516,36.060274 C230.917905,36.060274 227.5092,38.6205479 227.5092,42.1589041 C227.5092,45.0643836 229.519462,46.7328767 234.384879,47.8547945 L238.609342,48.8328767 C244.640127,50.2424658 247,52.4863014 247,56.6287671 C247,61.5191781 242.396792,64.9712329 235.958127,64.9712329 C229.490328,64.9712329 224.770583,61.3178082 224.304435,55.9958904 L226.547771,55.9958904 C227.101321,60.2246575 230.859637,63.0438356 235.928993,63.0438356 C241.114886,63.0438356 244.72753,60.4547945 244.72753,56.7726027 C244.72753,53.5794521 242.833805,51.9109589 237.939255,50.760274 L233.714791,49.8109589 C227.917079,48.4876712 225.294999,46.1575342 225.294999,42.2452055 Z" id="BlaeuAtlas-Copy-2" fill="#E0E0E0"></path>
                <g id="navigation-copy-4" transform="translate(243.000000, 0.000000)" fill="#D0021B" fill-rule="nonzero">
                    <polygon id="Shape" points="17.0181498 21.878261 3.3 19.5562659 32.9034559 5.83333333 18.5892968 35"></polygon>
                </g>
            </g>
        </g>
    </g>
</svg>