<?xml version="1.0" encoding="UTF-8"?>
<svg width="150px" height="33px" viewBox="0 0 150 33" version="1.1" xmlns="http://www.w3.org/2000/svg" xmlns:xlink="http://www.w3.org/1999/xlink">
    <!-- Generator: Sketch 51.3 (57544) - http://www.bohemiancoding.com/sketch -->
    <title>Logo blue nav</title>
    <desc>Created with Sketch.</desc>
    <defs></defs>
    <g id="Page-1" stroke="none" stroke-width="1" fill="none" fill-rule="evenodd">
        <g id="Web" transform="translate(-539.000000, -412.000000)">
            <g id="Logo-blue-nav" transform="translate(539.000000, 409.000000)">
                <path d="M8.26525432,35.0603038 L0,35.0603038 L0,12.5 L8.21775285,12.5 C12.1445403,12.5 14.8046222,14.7357058 14.8046222,18.065813 C14.8046222,20.567302 13.0629019,22.7092019 10.6244936,23.1469625 L10.6244936,23.2564026 C13.7912577,23.631626 15.9921587,25.7422573 15.9921587,28.8691185 C15.9921587,32.7151578 13.0945696,35.0603038 8.26525432,35.0603038 Z M2.15339959,14.391751 L2.15339959,22.5215902 L7.12521924,22.5215902 C10.5928259,22.5215902 12.619555,20.9581596 12.619555,18.3003276 C12.619555,15.8457415 10.7986656,14.391751 7.75857206,14.391751 L2.15339959,14.391751 Z M2.15339959,33.1685527 L7.96441173,33.1685527 C11.7011934,33.1685527 13.7754239,31.5582192 13.7754239,28.7596784 C13.7754239,25.9455033 11.6220243,24.3664384 7.67940296,24.3664384 L2.15339959,24.3664384 L2.15339959,33.1685527 Z M18.8897479,35.0603038 L18.8897479,12.5 L20.9798122,12.5 L20.9798122,35.0603038 L18.8897479,35.0603038 Z M30.0367575,33.5437761 C32.9185129,33.5437761 35.1827492,31.5269506 35.1827492,28.9472901 L35.1827492,27.1493448 L30.3059325,27.4776653 C27.7091859,27.6496426 26.2683083,28.7596784 26.2683083,30.5576236 C26.2683083,32.3243002 27.8041888,33.5437761 30.0367575,33.5437761 Z M29.6092444,35.326087 C26.3633112,35.326087 24.1465763,33.4030673 24.1465763,30.5576236 C24.1465763,27.7747171 26.2524744,26.086212 30.0525914,25.8360631 L35.1827492,25.523377 L35.1827492,24.1162895 C35.1827492,21.7711435 33.6785363,20.364056 31.1134573,20.364056 C28.6908828,20.364056 27.1391684,21.5366289 26.7749905,23.5065515 L24.7482615,23.5065515 C24.9857688,20.5985706 27.4083433,18.5348422 31.1609588,18.5348422 C34.9135743,18.5348422 37.2728135,20.6142049 37.2728135,23.9286778 L37.2728135,35.0603038 L35.2777521,35.0603038 L35.2777521,31.9647111 L35.2302507,31.9647111 C34.3118891,33.9815366 32.0634866,35.326087 29.6092444,35.326087 Z M47.2956219,20.3484217 C44.3505313,20.3484217 42.3079685,22.5841275 42.1337964,25.7891602 L52.2991092,25.7891602 C52.2516077,22.5841275 50.2723802,20.3484217 47.2956219,20.3484217 Z M52.1724386,30.4481834 L54.2466691,30.4481834 C53.7558207,33.2623585 51.079905,35.326087 47.4539601,35.326087 C42.8304845,35.326087 39.964563,32.1366885 39.964563,26.9773675 C39.964563,21.9274866 42.8621522,18.5348422 47.3272896,18.5348422 C51.697424,18.5348422 54.4525088,21.7086063 54.4525088,26.5552412 L54.4525088,27.4307624 L42.1179626,27.4307624 L42.1179626,27.5558368 C42.1179626,31.2298987 44.2238607,33.5125074 47.5014616,33.5125074 C49.9873714,33.5125074 51.7132578,32.2304943 52.1724386,30.4481834 Z M70.4605013,18.8006254 L70.4605013,35.0603038 L68.4812738,35.0603038 L68.4812738,32.0428827 L68.4337723,32.0428827 C67.5629122,34.0440739 65.5836846,35.326087 62.9711042,35.326087 C59.3926608,35.326087 57.1600921,33.027844 57.1600921,29.3694163 L57.1600921,18.8006254 L59.2659902,18.8006254 L59.2659902,29.0098273 C59.2659902,31.8865396 60.8177046,33.4812388 63.5727894,33.4812388 C66.4387109,33.4812388 68.370437,31.495682 68.370437,28.4469923 L68.370437,18.8006254 L70.4605013,18.8006254 Z M89.9202668,35.0603038 L87.0701791,27.5402025 L76.7940296,27.5402025 L73.9597757,35.0603038 L72.5980671,35.0603038 L81.3066684,12.5 L82.5733741,12.5 L91.2661415,35.0603038 L89.9202668,35.0603038 Z M81.8925198,14.1103335 L77.2057089,26.4301668 L86.6743336,26.4301668 L81.9716889,14.1103335 L81.8925198,14.1103335 Z M94.3379027,14.5324598 L95.5571069,14.5324598 L95.5571069,18.8006254 L98.8663754,18.8006254 L98.8663754,19.8481239 L95.5571069,19.8481239 L95.5571069,31.3237046 C95.5571069,33.2467242 96.2854626,34.0128052 97.9480138,34.0128052 C98.0271829,34.0128052 99.0247136,33.9971709 99.0880489,33.9971709 L99.0880489,35.0603038 C98.9772121,35.0759381 97.9638476,35.0915724 97.7738418,35.0915724 C95.367101,35.0915724 94.3379027,34.0440739 94.3379027,31.3549732 L94.3379027,19.8481239 L91.8836605,19.8481239 L91.8836605,18.8006254 L94.3379027,18.8006254 L94.3379027,14.5324598 Z M102.033139,35.0603038 L102.033139,12.5 L103.268177,12.5 L103.268177,35.0603038 L102.033139,35.0603038 Z M112.182618,34.2473198 C115.428552,34.2473198 118.056966,31.9178082 118.056966,29.0254616 L118.056966,26.6177784 L112.56263,27.0086361 C109.475035,27.2431507 107.79665,28.5251638 107.79665,30.682698 C107.79665,32.7620608 109.633373,34.2473198 112.182618,34.2473198 Z M112.008446,35.3104527 C108.794181,35.3104527 106.561612,33.4187016 106.561612,30.682698 C106.561612,27.8997915 108.588341,26.3050923 112.388458,26.0080405 L118.056966,25.6171828 L118.056966,24.1631924 C118.056966,21.3490173 116.331079,19.6448779 113.417656,19.6448779 C110.551735,19.6448779 108.746679,21.0675998 108.335,23.5221858 L107.147464,23.5221858 C107.46414,20.5047647 109.839213,18.5504765 113.43349,18.5504765 C117.043601,18.5504765 119.292004,20.6767421 119.292004,24.0693865 L119.292004,35.0603038 L118.104467,35.0603038 L118.104467,31.5738535 L118.0728,31.5738535 C117.233607,33.7782906 114.763531,35.3104527 112.008446,35.3104527 Z M122.442934,22.9593508 C122.442934,20.3953246 124.770506,18.5504765 128.048107,18.5504765 C131.42071,18.5504765 133.669113,20.4734961 133.969955,23.5065515 L132.782419,23.5065515 C132.449909,21.0832341 130.676521,19.597975 128.048107,19.597975 C125.498862,19.597975 123.646305,20.9894282 123.646305,22.9124479 C123.646305,24.4915128 124.738838,25.3983026 127.383086,26.0080405 L129.67899,26.5396069 C132.956591,27.3056879 134.23913,28.5251638 134.23913,30.7765039 C134.23913,33.4343359 131.737387,35.3104527 128.238112,35.3104527 C124.723004,35.3104527 122.157925,33.3248958 121.904584,30.4325491 L123.123788,30.4325491 C123.424631,32.7307921 125.467194,34.2629541 128.222279,34.2629541 C131.040699,34.2629541 133.004092,32.8558666 133.004092,30.8546754 C133.004092,29.1192674 131.974894,28.2124777 129.314812,27.5871054 L127.018908,27.0711733 C123.867978,26.3519952 122.442934,25.0856164 122.442934,22.9593508 Z" id="BlaeuAtlas-Copy-2" fill="#CED3D5"></path>
                <g id="navigation-copy-4" transform="translate(132.065217, 0.000000)" fill="#D0021B" fill-rule="nonzero">
                    <polygon id="Shape" points="9.24899444 11.8903592 1.79347826 10.6284054 17.882313 3.17028986 10.1028787 19.0217391"></polygon>
                </g>
            </g>
        </g>
    </g>
</svg>